<svg id="Capa_1" data-name="Capa 1" xmlns="http://www.w3.org/2000/svg" viewBox="0 0 511.03 145.21"><defs><style>.cls-1{fill:#fff;}</style></defs><path class="cls-1" d="M139.49,61.26l24.81-17L123.16,16l-33,22.66L57.14,16,16,44.23l24.81,17L16,78.28l33,22.66L49,101,90.1,129.21l.06,0,.06,0L131.36,101l-.07,0,33-22.66Zm-109-17L57.14,26,82.87,43.64l7.29,5,7.26-5L123.16,26l26.61,18.25-17.54,12L124,61.91l-7.32,5,.06,0L99.28,79,90.2,85.2l-.06,0-.06,0L81,79,60.62,65l-4.35-3.06-2.59-1.8-5.61-3.84Z"/><polygon class="cls-1" points="206.78 101.14 219.18 101.14 219.18 53.53 227.79 53.53 227.79 44.07 198.16 44.07 198.16 53.53 206.78 53.53 206.78 101.14"/><polygon class="cls-1" points="266.95 101.14 266.95 44.07 254.56 44.07 254.56 67.02 245.54 67.02 245.54 44.07 233.14 44.07 233.14 101.14 245.54 101.14 245.54 76.48 254.56 76.48 254.56 101.14 266.95 101.14"/><polygon class="cls-1" points="280.06 44.07 275.88 44.07 275.88 101.14 280.06 101.14 288.28 101.14 301.24 101.14 301.24 92.57 288.28 92.57 288.28 75.58 298.21 75.58 298.21 67.02 288.28 67.02 288.28 52.64 301.24 52.64 301.24 44.07 288.28 44.07 280.06 44.07"/><polygon class="cls-1" points="322.03 53.53 330.65 53.53 330.65 101.14 343.04 101.14 343.04 53.53 351.66 53.53 351.66 44.07 322.03 44.07 322.03 53.53"/><rect class="cls-1" x="399.15" y="44.07" width="12.4" height="57.07"/><path class="cls-1" d="M482.64,44.07V88.21a4.43,4.43,0,1,1-8.85,0V44.07H461.4V87.59A13.55,13.55,0,0,0,475,101.14h6.54A13.55,13.55,0,0,0,495,87.59V44.07Z"/><path class="cls-1" d="M390,67.94a13.4,13.4,0,0,0,1.37-5.9V57.47a13.42,13.42,0,0,0-13.4-13.4h-21v57.07h12.39V75.44h3.49l6.84,25.7H392L384.7,73.57A13.36,13.36,0,0,0,390,67.94ZM369.31,52.66h5a5.48,5.48,0,0,1,5.48,5.47v4.33a5.49,5.49,0,0,1-5.48,5.48h-5Z"/><path class="cls-1" d="M443.67,70.53h-.19A9.29,9.29,0,0,0,451,66.72a9.17,9.17,0,0,0,1.8-5.49v-4.4a12.5,12.5,0,0,0-.76-4.34,12.76,12.76,0,0,0-12-8.42H420.68v57.07h19.77a14.27,14.27,0,0,0,14.28-14.29V81.61a11.1,11.1,0,0,0-11.06-11.08Zm-10.6-18h3.81a5.33,5.33,0,0,1,5.33,5.33v3.57a5.33,5.33,0,0,1-5.33,5.33h-3.81Zm9.81,33.6a6.15,6.15,0,0,1-6.14,6.13h-3.67V75.13h3.67a6.14,6.14,0,0,1,6.14,6.12Z"/></svg>