<svg id="Capa_1" data-name="Capa 1" xmlns="http://www.w3.org/2000/svg" viewBox="0 0 277.76 277.73"><defs><style>.cls-1{fill:#c621e5;}</style></defs><polygon class="cls-1" points="138.9 113.35 138.9 113.39 123.22 97.71 138.9 113.35"/><path class="cls-1" d="M192.27,59H161L147.76,45.8a12.54,12.54,0,0,0-17.77,0L93.58,82.21V127.3l20.73-20.73L130,122.25l-16.61,16.61L97.7,154.5l-5.09,5.09-5.49,5.5L71.83,149.85l-.39-.4V73L93.58,50.89l27.56-27.55a25.15,25.15,0,0,1,35.52,0Z"/><path class="cls-1" d="M164.68,190.16l-15.55,15.5-.13.13H72.59L23.38,156.58a25,25,0,0,1,0-35.48L58.86,85.58v31.31L45.79,130a12.62,12.62,0,0,0,0,17.76l36,35.93h45.09L106.61,163.4l15.63-15.68,14.35,14.36,18,18,3.5,3.54h0Z"/><path class="cls-1" d="M206,128.63V205l-22.15,22.15-27.15,27.2a25.15,25.15,0,0,1-35.52,0l-36-36h31.31L130,231.93a12.54,12.54,0,0,0,17.77,0l36.05-36.06V150.78l-20.37,20.38-15.68-15.64,14.61-14.66L190.28,113l14.53,14.53Z"/><path class="cls-1" d="M254.42,156.58,218.5,192.51V161.19L232,147.72A12.53,12.53,0,0,0,232,130L195.68,93.64H150.55l20.64,20.64L155.51,130l-15.28-15.24-1.33-1.33v0L123.22,97.71,118.7,93.2l-6-6L128.4,71.49h76.41L227,93.64l27.42,27.46A25.1,25.1,0,0,1,254.42,156.58Z"/></svg>