<svg id="Capa_1" data-name="Capa 1" xmlns="http://www.w3.org/2000/svg" viewBox="0 0 458.19 167.65"><defs><style>.cls-1{fill:#c621e5;}.cls-2{fill:#fff;}</style></defs><polygon class="cls-1" points="83.84 69.74 83.84 69.77 75.19 61.11 83.84 69.74"/><path class="cls-1" d="M113.31,39.71H96l-7.28-7.26a6.93,6.93,0,0,0-9.81,0l-20.1,20.1V77.44L70.27,66l8.66,8.66-9.17,9.17L61.1,92.46l-2.81,2.81-3,3-8.44-8.41-.22-.22V47.46l12.23-12.2L74,20.05a13.89,13.89,0,0,1,19.61,0Z"/><path class="cls-1" d="M98.08,112.14l-8.59,8.56-.07.08H47.24L20.07,93.61a13.82,13.82,0,0,1,0-19.59L39.66,54.41V71.7l-7.22,7.21a7,7,0,0,0,0,9.81L52.3,108.55H77.19L66,97.37l8.63-8.65,7.92,7.92,9.93,9.93,1.93,2h0Z"/><path class="cls-1" d="M120.87,78.18v42.18l-12.23,12.23-15,15a13.89,13.89,0,0,1-19.61,0L54.18,127.72H71.47l7.46,7.48a6.92,6.92,0,0,0,9.81,0l19.9-19.9V90.4L97.39,101.65,88.74,93l8.07-8.09,15.4-15.41,8,8Z"/><path class="cls-1" d="M147.62,93.61l-19.83,19.83V96.15l7.43-7.43a6.92,6.92,0,0,0,0-9.81l-20-20H90.28l11.39,11.4L93,78.91,84.58,70.5l-.74-.73v0l-8.65-8.63-2.5-2.49-3.3-3.33,8.66-8.66h42.18l12.25,12.23L147.62,74A13.87,13.87,0,0,1,147.62,93.61Z"/><path class="cls-2" d="M169.8,44.42h62.07v16H209.48v62.92H192.2V60.42H169.8Z"/><path class="cls-2" d="M237.85,52.31a9.33,9.33,0,1,1,9.38,9.39A9.33,9.33,0,0,1,237.85,52.31ZM239.13,70h16.42v53.32H239.13Z"/><path class="cls-2" d="M266.86,123.34V70h15.46l1.07,5.54c3.31-4.58,9.38-7.25,16.32-7.25,12.69,0,20.05,8.1,20.05,22.07v33H303.33v-29c0-6.72-3.73-11.09-9.38-11.09-6.51,0-10.67,4.26-10.67,10.88v29.22Z"/><path class="cls-2" d="M330.42,123.34V42.93h16.43V89.21L364.12,70h20.59l-20,21.11,19.41,32.21h-19L353.14,103.4,346.85,110v13.33Z"/><path class="cls-2" d="M442.19,70v53.32H426.73l-1.07-6c-3.3,4.37-9.91,7.36-16.31,7.36-12.16,0-19.63-8.1-19.63-21.23V70h16.43V97.53c0,8.75,3,12.59,9.7,12.59,7,0,9.92-3.63,9.92-12.37V70Z"/></svg>